<svg xmlns="http://www.w3.org/2000/svg" width="16" height="16" viewBox="0 0 16 16">
  <path id="_Sign_in_with_Apple" data-name=" Sign in with Apple" d="M1.027,4.092a8.059,8.059,0,0,0,8-8,8.061,8.061,0,0,0-8.008-8,8.053,8.053,0,0,0-7.992,8A8.064,8.064,0,0,0,1.027,4.092Zm0-1.333A6.634,6.634,0,0,1-5.631-3.908,6.628,6.628,0,0,1,1.02-10.575,6.653,6.653,0,0,1,7.694-3.908,6.636,6.636,0,0,1,1.027,2.758ZM-2.612-3.908a.62.62,0,0,0,.667.643H.361V-.951a.63.63,0,0,0,.651.667.634.634,0,0,0,.667-.667V-3.265H3.992a.624.624,0,0,0,.667-.643.638.638,0,0,0-.667-.667H1.678V-6.881a.64.64,0,0,0-.667-.675.632.632,0,0,0-.651.675v2.306H-1.945A.634.634,0,0,0-2.612-3.908Z" transform="translate(6.973 11.908)" fill="#fff"/>
</svg>
