<svg xmlns="http://www.w3.org/2000/svg" width="38" height="38" viewBox="0 0 38 38">
  <g id="Group_21367" data-name="Group 21367" transform="translate(-1653 -63)">
    <rect id="Rectangle_6558" data-name="Rectangle 6558" width="38" height="38" transform="translate(1653 63)" fill="rgba(255,255,255,0)"/>
    <path id="Path_22061" data-name="Path 22061" d="M9.4,2.391a8.059,8.059,0,0,0,8-8,8.061,8.061,0,0,0-8.008-8,8.053,8.053,0,0,0-7.992,8A8.064,8.064,0,0,0,9.4,2.391Zm0-1.333A6.634,6.634,0,0,1,2.74-5.609a6.628,6.628,0,0,1,6.651-6.667,6.653,6.653,0,0,1,6.675,6.667A6.636,6.636,0,0,1,9.4,1.057ZM9.234-3.986a.576.576,0,0,0,.635-.557v-.094c0-.439.251-.722.8-1.082.761-.5,1.3-.957,1.3-1.9,0-1.3-1.161-2.008-2.494-2.008A2.379,2.379,0,0,0,7.03-8.26a1.272,1.272,0,0,0-.063.384.525.525,0,0,0,.533.541.686.686,0,0,0,.58-.314l.141-.188A1.368,1.368,0,0,1,9.43-8.558a1.038,1.038,0,0,1,1.176,1c0,.533-.329.792-1.012,1.271a1.828,1.828,0,0,0-.988,1.576v.1A.561.561,0,0,0,9.234-3.986ZM9.218-1.649a.837.837,0,0,0,.847-.816.832.832,0,0,0-.847-.816.837.837,0,0,0-.847.816A.842.842,0,0,0,9.218-1.649Z" transform="translate(1662.602 87.609)"/>
  </g>
</svg>
